# xmcd CD database file
#
# Track frame offsets:
#	150
#	20994
#	53417
#	75355
#	81805
#	105304
#	139748
#	157959
#	174418
#
# Disc length: 2628 seconds
#
# Revision: 0
# Processed by: cddbd v1.5.1PL0 Copyright (c) Steve Scherf et al.
# Submitted via: CDex 1.51
#
DISCID=5d0a4209
DTITLE=Andrew d'Angelo Trio - Morthana with Pride
DYEAR=2005
DGENRE=Jazz
TTITLE0=My Prostate
TTITLE1=Skrinker
TTITLE2=Reef Zar Ja
TTITLE3=Cheek Spread
TTITLE4=Koavur
TTITLE5=Space Hear
TTITLE6=HB and Co
TTITLE7=Kug Ronke
TTITLE8=Eat Shit Mutherfucker!!
EXTD=YEAR: 2005
EXTT0=
EXTT1=
EXTT2=
EXTT3=
EXTT4=
EXTT5=
EXTT6=
EXTT7=
EXTT8=
PLAYORDER=
